<?xml version="1.0" encoding="UTF-8" standalone="no"?>
<!DOCTYPE svg PUBLIC "-//W3C//DTD SVG 1.1//EN" "http://www.w3.org/Graphics/SVG/1.1/DTD/svg11.dtd">
<svg width="100%" height="100%" viewBox="0 0 1772 430" version="1.1" xmlns="http://www.w3.org/2000/svg" xmlns:xlink="http://www.w3.org/1999/xlink" xml:space="preserve" style="fill-rule:evenodd;clip-rule:evenodd;stroke-linejoin:round;stroke-miterlimit:1.41421;">
    <g transform="matrix(4.16667,0,0,4.16667,0,-3.62918)">
        <path d="M212.93,16.776L212.93,24.641L184.757,24.641C183.441,24.641 182.333,25.026 181.431,25.793C180.532,26.555 180.082,27.497 180.082,28.62C180.082,29.738 180.532,30.699 181.431,31.492C182.333,32.286 183.441,32.683 184.757,32.683L203.472,32.683C205.409,32.683 207.228,32.994 208.927,33.612C210.625,34.232 212.117,35.068 213.402,36.132C214.683,37.193 215.688,38.443 216.412,39.884C217.14,41.333 217.505,42.878 217.505,44.524C217.505,46.173 217.14,47.721 216.412,49.165C215.688,50.61 214.683,51.877 213.402,52.964C212.117,54.055 210.625,54.909 208.927,55.527C207.228,56.145 205.409,56.453 203.472,56.453L175.401,56.453L175.401,48.589L203.472,48.589C204.854,48.589 206,48.207 206.903,47.438C207.8,46.675 208.253,45.705 208.253,44.524C208.253,43.408 207.8,42.465 206.903,41.696C206,40.931 204.854,40.549 203.472,40.549L184.757,40.549C182.819,40.549 181,40.241 179.302,39.618C177.6,39.001 176.129,38.149 174.882,37.06C173.638,35.969 172.65,34.702 171.92,33.259C171.191,31.818 170.829,30.269 170.829,28.62C170.829,26.969 171.191,25.422 171.92,23.979C172.65,22.539 173.638,21.283 174.882,20.221C176.129,19.165 177.6,18.324 179.302,17.705C181,17.087 182.819,16.776 184.757,16.776L212.93,16.776Z" style="fill:rgb(176,61,67);fill-rule:nonzero;"/>
    </g>
    <g transform="matrix(4.16667,0,0,4.16667,0,-3.62918)">
        <rect x="124.659" y="16.778" width="40.114" height="7.863" style="fill:rgb(176,61,67);fill-rule:nonzero;"/>
    </g>
    <g transform="matrix(4.16667,0,0,4.16667,0,-3.62918)">
        <rect x="124.659" y="32.684" width="40.114" height="7.866" style="fill:rgb(176,61,67);fill-rule:nonzero;"/>
    </g>
    <g transform="matrix(4.16667,0,0,4.16667,0,-3.62918)">
        <rect x="124.659" y="48.589" width="40.114" height="7.864" style="fill:rgb(176,61,67);fill-rule:nonzero;"/>
    </g>
    <g transform="matrix(4.16667,0,0,4.16667,0,-3.62918)">
        <path d="M266.659,29.724C264.961,32.464 262.654,34.747 259.742,36.571C262.654,38.403 264.961,40.697 266.659,43.466C268.355,46.233 269.208,49.238 269.208,52.476L269.208,56.453L259.952,56.453L259.952,52.476C259.952,50.828 259.588,49.284 258.864,47.839C258.131,46.395 257.125,45.131 255.845,44.04C254.562,42.953 253.072,42.094 251.375,41.473C249.675,40.858 247.855,40.549 245.917,40.549C243.976,40.549 242.137,40.858 240.406,41.473C238.677,42.094 237.167,42.953 235.886,44.04C234.604,45.131 233.602,46.395 232.872,47.839C232.144,49.284 231.78,50.828 231.78,52.476L231.78,56.453L222.528,56.453L222.528,52.476L222.528,0.872L231.78,0.872L231.78,36.749C233.788,35.453 235.99,34.451 238.381,33.745C240.77,33.039 243.284,32.683 245.917,32.683C247.855,32.683 249.675,32.374 251.375,31.754C253.072,31.139 254.562,30.285 255.845,29.195C257.125,28.105 258.131,26.822 258.864,25.351C259.588,23.879 259.952,22.315 259.952,20.666L259.952,16.776L269.208,16.776L269.208,20.666C269.208,23.965 268.355,26.984 266.659,29.724Z" style="fill:rgb(176,61,67);fill-rule:nonzero;"/>
    </g>
    <g transform="matrix(4.16667,0,0,4.16667,0,-3.62918)">
        <path d="M321.972,77.244L312.721,77.244L312.721,52.568L312.721,52.476C310.78,53.774 308.614,54.777 306.22,55.483C303.829,56.189 301.316,56.546 298.688,56.546C295.499,56.546 292.482,56.026 289.64,54.994C286.795,53.965 284.309,52.539 282.155,50.712C280.007,48.888 278.326,46.765 277.112,44.347C275.901,41.932 275.294,39.373 275.294,36.659L275.294,16.866L284.545,16.866L284.545,36.659C284.545,38.308 284.909,39.874 285.638,41.341C286.365,42.82 287.371,44.098 288.65,45.188C289.936,46.278 291.442,47.131 293.177,47.748C294.908,48.368 296.745,48.679 298.688,48.679C300.625,48.679 302.443,48.368 304.143,47.748C305.843,47.131 307.33,46.278 308.614,45.188C309.896,44.098 310.9,42.82 311.629,41.341C312.357,39.874 312.721,38.308 312.721,36.659L312.721,16.866L321.972,16.866L321.972,77.244Z" style="fill:rgb(176,61,67);fill-rule:nonzero;"/>
    </g>
    <g transform="matrix(4.16667,0,0,4.16667,0,-3.62918)">
        <rect x="52.084" y="0.872" width="9.251" height="55.581" style="fill:rgb(176,61,67);fill-rule:nonzero;"/>
    </g>
    <g transform="matrix(4.16667,0,0,4.16667,0,-3.62918)">
        <path d="M116.693,16.776L116.693,36.571C116.693,39.282 116.085,41.845 114.871,44.26C113.662,46.675 111.977,48.798 109.83,50.622C107.685,52.446 105.207,53.88 102.399,54.909C99.593,55.941 96.558,56.453 93.303,56.453C90.113,56.453 87.098,55.941 84.257,54.909C81.412,53.88 78.937,52.446 76.825,50.622C74.708,48.798 73.045,46.675 71.834,44.26C70.617,41.845 70.012,39.282 70.012,36.571L70.012,16.776L79.266,16.776L79.266,36.571C79.266,38.224 79.628,39.786 80.359,41.254C81.085,42.727 82.088,44.014 83.371,45.099C84.651,46.189 86.143,47.042 87.841,47.667C89.538,48.281 91.358,48.589 93.303,48.589C95.242,48.589 97.08,48.281 98.81,47.667C100.542,47.042 102.049,46.189 103.335,45.099C104.619,44.014 105.619,42.727 106.347,41.254C107.077,39.786 107.436,38.224 107.436,36.571L107.436,16.776L116.693,16.776Z" style="fill:rgb(176,61,67);fill-rule:nonzero;"/>
    </g>
    <g transform="matrix(4.16667,0,0,4.16667,0,-3.62918)">
        <path d="M37.426,36.806C37.426,38.458 37.062,40.014 36.334,41.486C35.606,42.96 34.601,44.245 33.319,45.333C32.036,46.424 30.526,47.277 28.796,47.897C27.064,48.516 25.227,48.824 23.288,48.824C21.347,48.824 19.526,48.516 17.827,47.897C16.128,47.277 14.64,46.424 13.359,45.333C12.074,44.245 11.071,42.96 10.345,41.486C9.614,40.014 9.256,38.458 9.256,36.806L9.256,35.331C9.256,33.68 9.614,32.119 10.345,30.645C11.071,29.172 12.074,27.895 13.359,26.801C14.641,25.712 16.128,24.859 17.827,24.24C19.531,23.621 21.348,23.312 23.286,23.312C25.229,23.312 27.064,23.621 28.796,24.24C30.529,24.859 32.036,25.712 33.319,26.801C34.604,27.895 35.606,29.172 36.334,30.645C37.062,32.119 37.426,33.68 37.426,35.331L37.426,36.806ZM46.616,34.29C46.484,31.966 45.913,29.744 44.86,27.641C43.644,25.223 41.965,23.104 39.814,21.279C37.667,19.451 35.174,18.021 32.335,16.993C29.486,15.963 26.476,15.447 23.286,15.447C20.654,15.447 18.141,15.801 15.751,16.507C13.359,17.215 11.194,18.217 9.256,19.512L9.256,17.011L9.249,8.939L9.249,0.871L0,0.871L0,56.452L9.249,56.452L9.249,52.655C10.772,53.639 12.426,54.48 14.242,55.139C17.083,56.173 20.102,56.688 23.288,56.688C26.542,56.688 29.574,56.173 32.382,55.139C35.188,54.112 37.667,52.681 39.814,50.855C41.963,49.028 43.644,46.909 44.86,44.493C46.073,42.078 46.68,39.514 46.68,36.806L46.68,34.29L46.616,34.29Z" style="fill:rgb(176,61,67);fill-rule:nonzero;"/>
    </g>
    <g transform="matrix(4.16667,0,0,4.16667,0,-3.62918)">
        <path d="M140.759,92.958C140.331,90.507 138.307,89.294 135.905,89.294C131.525,89.294 130.597,92.721 130.597,95.03C130.597,97.338 131.525,100.765 135.905,100.765C138.141,100.765 140.306,99.694 140.759,97.004L145.781,97.004C145.208,101.954 141.14,104 135.738,104C129.55,104 125.695,101.335 125.695,95.03C125.695,88.723 129.55,86.057 135.738,86.057C139.831,86.057 145.042,87.104 145.733,92.958L140.759,92.958Z" style="fill:white;fill-rule:nonzero;"/>
    </g>
    <g transform="matrix(4.16667,0,0,4.16667,0,-3.62918)">
        <path d="M158.99,100.765C163.177,100.765 164.654,97.671 164.654,95.03C164.654,92.388 163.177,89.294 158.99,89.294C154.8,89.294 153.325,92.388 153.325,95.03C153.325,97.671 154.8,100.765 158.99,100.765ZM158.99,86.057C168.128,86.057 169.556,91.483 169.556,95.03C169.556,98.575 168.128,104 158.99,104C149.851,104 148.422,98.575 148.422,95.03C148.422,91.483 149.851,86.057 158.99,86.057Z" style="fill:white;fill-rule:nonzero;"/>
    </g>
    <g transform="matrix(4.16667,0,0,4.16667,0,-3.62918)">
        <path d="M187.521,86.533L191.995,86.533L191.995,103.525L186.974,103.525L177.716,91.674L177.668,91.674L177.668,103.525L173.195,103.525L173.195,86.533L178.549,86.533L187.473,98.385L187.521,98.385L187.521,86.533Z" style="fill:white;fill-rule:nonzero;"/>
    </g>
    <g transform="matrix(4.16667,0,0,4.16667,0,-3.62918)">
        <path d="M208.21,91.459C207.924,89.246 205.807,89.008 203.951,89.008C202.047,89.008 200.809,89.865 200.809,91.008C200.809,91.912 201.571,92.411 202.761,92.601L208.544,93.53C211.638,94.03 213.993,95.196 213.993,98.289C213.993,101.454 211.851,104 205.165,104C201.023,104 195.646,103.477 195.598,98.171L200.786,98.171C200.833,100.503 203.166,100.907 205.165,100.907C207.33,100.907 208.805,100.265 208.805,98.789C208.805,97.481 207.758,97.124 205.926,96.838L201.714,96.196C198.762,95.744 195.907,94.862 195.907,91.389C195.907,87.604 199,86.057 204.332,86.057C207.831,86.057 213.018,86.653 213.327,91.459L208.21,91.459Z" style="fill:white;fill-rule:nonzero;"/>
    </g>
    <g transform="matrix(4.16667,0,0,4.16667,0,-3.62918)">
        <rect x="217.524" y="86.533" width="4.617" height="16.992" style="fill:white;fill-rule:nonzero;"/>
    </g>
    <g transform="matrix(4.16667,0,0,4.16667,0,-3.62918)">
        <path d="M231.236,100.289L236.375,100.289C239.421,100.289 240.801,98.456 240.801,94.862C240.801,91.722 239.469,89.77 235.947,89.77L231.236,89.77L231.236,100.289ZM226.619,86.533L237.208,86.533C243.04,86.533 245.562,89.912 245.562,95.03C245.562,100.146 242.944,103.525 237.614,103.525L226.619,103.525L226.619,86.533Z" style="fill:white;fill-rule:nonzero;"/>
    </g>
    <g transform="matrix(4.16667,0,0,4.16667,0,-3.62918)">
        <path d="M249.422,86.533L265.295,86.533L265.295,89.77L254.04,89.77L254.04,93.292L264.725,93.292L264.725,96.386L254.04,96.386L254.04,100.289L265.391,100.289L265.391,103.525L249.422,103.525L249.422,86.533Z" style="fill:white;fill-rule:nonzero;"/>
    </g>
    <g transform="matrix(4.16667,0,0,4.16667,0,-3.62918)">
        <path d="M273.96,94.054L280.077,94.054C281.099,94.054 282.29,93.483 282.29,91.888C282.29,90.198 280.957,89.77 279.837,89.77L273.96,89.77L273.96,94.054ZM269.343,86.533L281.694,86.533C286.406,86.533 287.192,89.413 287.192,91.15C287.192,93.221 286.359,94.553 284.431,95.243L284.431,95.291C286.454,95.6 286.763,98.171 286.763,99.836C286.763,100.669 286.834,102.668 287.644,103.525L282.598,103.525C282.17,102.74 282.146,102.05 282.146,100.265C282.146,97.885 281.124,97.29 279.696,97.29L273.96,97.29L273.96,103.525L269.343,103.525L269.343,86.533Z" style="fill:white;fill-rule:nonzero;"/>
    </g>
    <g transform="matrix(4.16667,0,0,4.16667,0,-3.62918)">
        <rect x="301.291" y="86.533" width="4.617" height="16.992" style="fill:white;fill-rule:nonzero;"/>
    </g>
    <g transform="matrix(4.16667,0,0,4.16667,0,-3.62918)">
        <path d="M315.016,89.77L308.708,89.77L308.708,86.533L325.939,86.533L325.939,89.77L319.631,89.77L319.631,103.525L315.016,103.525L315.016,89.77Z" style="fill:white;fill-rule:nonzero;"/>
    </g>
    <g transform="matrix(4.16667,0,0,4.16667,0,-3.62918)">
        <path d="M343.82,100.289L348.959,100.289C352.005,100.289 353.387,98.456 353.387,94.862C353.387,91.722 352.053,89.77 348.531,89.77L343.82,89.77L343.82,100.289ZM339.203,86.533L349.792,86.533C355.624,86.533 358.146,89.912 358.146,95.03C358.146,100.146 355.529,103.525 350.198,103.525L339.203,103.525L339.203,86.533Z" style="fill:white;fill-rule:nonzero;"/>
    </g>
    <g transform="matrix(4.16667,0,0,4.16667,0,-3.62918)">
        <path d="M371.679,100.765C375.867,100.765 377.343,97.671 377.343,95.03C377.343,92.388 375.867,89.294 371.679,89.294C367.49,89.294 366.014,92.388 366.014,95.03C366.014,97.671 367.49,100.765 371.679,100.765ZM371.679,86.057C380.818,86.057 382.246,91.483 382.246,95.03C382.246,98.575 380.818,104 371.679,104C362.541,104 361.112,98.575 361.112,95.03C361.112,91.483 362.541,86.057 371.679,86.057Z" style="fill:white;fill-rule:nonzero;"/>
    </g>
    <g transform="matrix(4.16667,0,0,4.16667,0,-3.62918)">
        <path d="M400.21,86.533L404.684,86.533L404.684,103.525L399.664,103.525L390.406,91.674L390.358,91.674L390.358,103.525L385.884,103.525L385.884,86.533L391.24,86.533L400.163,98.385L400.21,98.385L400.21,86.533Z" style="fill:white;fill-rule:nonzero;"/>
    </g>
    <g transform="matrix(4.16667,0,0,4.16667,0,-3.62918)">
        <path d="M409.228,86.533L425.101,86.533L425.101,89.77L413.845,89.77L413.845,93.292L424.531,93.292L424.531,96.386L413.845,96.386L413.845,100.289L425.197,100.289L425.197,103.525L409.228,103.525L409.228,86.533Z" style="fill:white;fill-rule:nonzero;"/>
    </g>
</svg>
